<svg width="195" height="44" viewBox="0 0 195 44" fill="none" xmlns="http://www.w3.org/2000/svg">
<path d="M12.6868 26.6163C10.0417 26.6163 7.78421 26.0805 5.91439 25.0087C4.06738 23.937 2.65361 22.4434 1.6731 20.528C0.692588 18.5898 0.202332 16.3437 0.202332 13.7898C0.202332 11.0307 0.726792 8.70485 1.77571 6.81223C2.84744 4.89681 4.34101 3.44884 6.25643 2.46833C8.19465 1.48782 10.4407 0.997559 12.9946 0.997559C15.3433 0.997559 17.3613 1.3738 19.0487 2.12629C20.7589 2.85597 22.1043 3.88209 23.0848 5.20464C24.0653 6.5272 24.6354 8.07777 24.795 9.85638H17.6463C17.4183 8.92147 16.9053 8.19179 16.1072 7.66733C15.3091 7.14287 14.2716 6.88064 12.9946 6.88064C11.2844 6.88064 9.90485 7.4165 8.85593 8.48822C7.82981 9.55995 7.31675 11.3272 7.31675 13.7898C7.31675 16.2753 7.80701 18.0767 8.78752 19.1941C9.76804 20.3114 11.1134 20.8701 12.8236 20.8701C14.3058 20.8701 15.4915 20.5622 16.3808 19.9465C17.2929 19.3309 17.863 18.51 18.091 17.4839H12.4131V12.6611H25.1712V15.6711C25.1712 17.8601 24.6582 19.7755 23.632 21.4173C22.6059 23.0591 21.158 24.3361 19.2881 25.2482C17.4183 26.1603 15.2179 26.6163 12.6868 26.6163Z" fill="#9747FF"/>
<path d="M30.3015 26.2743V1.3396H37.2449V20.1518H47.5745V26.2743H30.3015Z" fill="#9747FF"/>
<path d="M80.5519 26.2743V1.3396H93.5495C96.1718 1.3396 98.11 1.93247 99.3641 3.1182C100.641 4.28114 101.28 5.83172 101.28 7.76994C101.28 9.02408 100.96 10.1414 100.322 11.1219C99.7062 12.1024 98.8511 12.7637 97.7565 13.1058V13.4136C99.1019 13.71 100.139 14.3713 100.869 15.3974C101.599 16.4235 101.964 17.6321 101.964 19.023C101.964 21.4857 101.154 23.3099 99.5351 24.4957C97.9162 25.6814 95.6131 26.2743 92.6259 26.2743H80.5519ZM87.2901 11.0193H91.5656C92.5689 11.0193 93.2758 10.8141 93.6863 10.4036C94.0967 9.97039 94.3019 9.41173 94.3019 8.72765C94.3019 7.95236 94.0511 7.4051 93.5495 7.08586C93.0478 6.74382 92.3751 6.5728 91.5314 6.5728H87.2901V11.0193ZM87.2901 21.0411H91.8051C92.9452 21.0411 93.7433 20.8244 94.1993 20.3912C94.6782 19.9351 94.9176 19.3423 94.9176 18.6126C94.9176 17.6777 94.6326 17.0164 94.0625 16.6288C93.5153 16.2411 92.7856 16.0473 91.8735 16.0473H87.2901V21.0411Z" fill="#9747FF"/>
<path d="M103.917 26.2743L111.681 1.3396H121.566L129.33 26.2743H122.113L120.813 21.8278H112.433L111.134 26.2743H103.917ZM113.973 16.5604H119.274L117.804 11.5324L116.743 7.56472H116.504L115.443 11.5324L113.973 16.5604Z" fill="#9747FF"/>
<path d="M133.341 26.2743V1.3396H140.284V20.1518H150.614V26.2743H133.341Z" fill="#9747FF"/>
<path d="M154.959 26.2743V1.3396H161.902V20.1518H172.232V26.2743H154.959Z" fill="#9747FF"/>
<path d="M178.308 26.2743V17.0734L169.073 1.3396H176.974L181.626 10.301H181.899L186.654 1.3396H194.521L185.251 17.0734V26.2743H178.308Z" fill="#9747FF"/>
<path d="M55.281 26.4082C52.2187 23.8884 50.2658 20.0691 50.2658 15.7937C50.2658 8.20569 56.4171 2.05442 64.005 2.05442C71.593 2.05442 77.7443 8.20569 77.7443 15.7937C77.7443 20.0691 75.7914 23.8884 72.729 26.4082H74.313C77.0812 23.7195 78.8011 19.9575 78.8011 15.7937C78.8011 7.622 72.1767 0.997559 64.005 0.997559C55.8334 0.997559 49.2089 7.622 49.2089 15.7937C49.2089 19.9575 50.9288 23.7195 53.697 26.4082H55.281Z" fill="url(#paint0_linear_554_806)"/>
<path d="M59.2642 26.4082C55.2104 24.5904 52.3794 20.5162 52.3794 15.7938C52.3794 9.38389 57.595 4.16827 64.0049 4.16827C64.3622 4.16827 64.713 4.18941 65.0618 4.22111V6.282H62.9481L61.8912 9.45259H60.8343V10.5095H66.1187L67.1755 11.5663H68.2324V12.6232L67.1755 13.68L62.9481 12.6232L58.7206 15.7938V18.9644L60.8343 21.0781H64.0049V23.7203L65.0618 26.3624H66.1187L69.2892 22.135V21.0781L70.3461 18.9644V17.9075H69.2892L68.2324 15.7938L69.2892 14.7369L70.8745 15.7938L73.5167 14.7369V13.68H75.4286C75.5554 14.367 75.6304 15.0709 75.6304 15.7938C75.6304 20.5162 72.7994 24.5904 68.7456 26.4082H59.2642Z" fill="url(#paint1_linear_554_806)"/>
<path d="M8.09614 42.9106L6.50073 35.4071H8.27112L8.96074 39.1743L9.29012 41.1608H9.37246L10.5561 35.4071H12.5221L13.7367 41.1814H13.8087L14.1175 39.1949L14.7865 35.4071H16.5569L14.9615 42.9106H12.7588L11.5752 37.5686H11.5031L10.2885 42.9106H8.09614Z" fill="white"/>
<path d="M25.164 42.9106V35.4071H30.6193V36.7761H26.7697V38.4538H30.1149V39.7404H26.7697V41.5417H30.6398V42.9106H25.164Z" fill="white"/>
<path d="M39.6686 42.9106V35.4071H43.3535C44.1151 35.4071 44.6881 35.5855 45.0724 35.9423C45.4567 36.2923 45.6488 36.7555 45.6488 37.3319C45.6488 37.7161 45.5493 38.0592 45.3503 38.3612C45.1582 38.6631 44.8803 38.8655 44.5166 38.9684V39.0508C44.9489 39.14 45.2782 39.3424 45.5047 39.6581C45.738 39.9669 45.8546 40.334 45.8546 40.7594C45.8546 41.4662 45.6179 42.0014 45.1444 42.3651C44.6778 42.7288 44.0156 42.9106 43.1579 42.9106H39.6686ZM41.2228 38.4847H42.9726C43.3432 38.4847 43.6108 38.3989 43.7755 38.2274C43.947 38.0558 44.0328 37.8328 44.0328 37.5583C44.0328 37.2495 43.9299 37.0196 43.724 36.8687C43.525 36.7109 43.2574 36.6319 42.9212 36.6319H41.2228V38.4847ZM41.2228 41.6755H42.9829C43.4084 41.6755 43.7206 41.5829 43.9196 41.3976C44.1186 41.2123 44.2181 40.9687 44.2181 40.6668C44.2181 40.3237 44.1117 40.0732 43.899 39.9154C43.6931 39.7507 43.4084 39.6684 43.0447 39.6684H41.2228V41.6755Z" fill="white"/>
<path d="M67.282 43.0033C66.2665 43.0033 65.4945 42.7768 64.9661 42.3239C64.4446 41.8711 64.1839 41.2809 64.1839 40.5536H65.8102C65.8239 40.9241 65.9474 41.2226 66.1807 41.449C66.4209 41.6686 66.8086 41.7784 67.3438 41.7784C67.7555 41.7784 68.0849 41.7029 68.3319 41.552C68.579 41.401 68.7025 41.178 68.7025 40.8829C68.7025 40.6428 68.651 40.4575 68.5481 40.3271C68.4452 40.1899 68.2667 40.0835 68.0128 40.008C67.759 39.9326 67.4056 39.8571 66.9527 39.7816C66.0881 39.6443 65.4362 39.411 64.997 39.0817C64.5579 38.7454 64.3383 38.2514 64.3383 37.5995C64.3383 36.8927 64.599 36.3369 65.1205 35.932C65.642 35.5203 66.3591 35.3145 67.2718 35.3145C67.8619 35.3145 68.3697 35.4071 68.7951 35.5924C69.2206 35.7776 69.5499 36.0384 69.7832 36.3746C70.0234 36.7109 70.1435 37.102 70.1435 37.548H68.5275C68.5138 37.1843 68.38 36.9236 68.1261 36.7658C67.879 36.6079 67.5771 36.529 67.2203 36.529C66.8429 36.529 66.5444 36.6079 66.3248 36.7658C66.1121 36.9167 66.0057 37.126 66.0057 37.3936C66.0057 37.6269 66.0675 37.8019 66.191 37.9186C66.3145 38.0352 66.5066 38.1244 66.7674 38.1862C67.035 38.2479 67.385 38.3166 67.8173 38.392C68.1329 38.4401 68.4417 38.5053 68.7436 38.5876C69.0456 38.67 69.3166 38.7935 69.5568 38.9582C69.8038 39.116 69.9994 39.339 70.1435 39.6272C70.2944 39.9085 70.3699 40.2756 70.3699 40.7285C70.3699 41.401 70.1092 41.95 69.5877 42.3754C69.073 42.794 68.3045 43.0033 67.282 43.0033Z" fill="white"/>
<path d="M82.657 43.0033C81.9021 43.0033 81.24 42.8523 80.6704 42.5504C80.1077 42.2485 79.6686 41.8093 79.3529 41.2329C79.0441 40.6565 78.8897 39.9634 78.8897 39.1537C78.8897 38.3371 79.0441 37.6441 79.3529 37.0745C79.6686 36.505 80.1077 36.0693 80.6704 35.7673C81.24 35.4654 81.9021 35.3145 82.657 35.3145C83.4186 35.3145 84.0808 35.4654 84.6435 35.7673C85.2062 36.0693 85.6419 36.5084 85.9507 37.0848C86.2664 37.6544 86.4242 38.344 86.4242 39.1537C86.4242 39.9703 86.2664 40.6668 85.9507 41.2432C85.6419 41.8127 85.2027 42.2485 84.6332 42.5504C84.0705 42.8523 83.4118 43.0033 82.657 43.0033ZM82.657 41.6343C83.3088 41.6343 83.8235 41.4285 84.2009 41.0167C84.5852 40.5982 84.7773 39.9772 84.7773 39.1537C84.7773 38.3303 84.5852 37.7127 84.2009 37.301C83.8166 36.8893 83.302 36.6834 82.657 36.6834C82.0119 36.6834 81.4973 36.8893 81.113 37.301C80.7356 37.7127 80.5469 38.3303 80.5469 39.1537C80.5469 39.984 80.7356 40.605 81.113 41.0167C81.4973 41.4285 82.0119 41.6343 82.657 41.6343Z" fill="white"/>
<path d="M95.3248 42.9106V35.4071H96.9305V41.4902H100.265V42.9106H95.3248Z" fill="white"/>
<path d="M111.652 43.0033C110.979 43.0033 110.403 42.8832 109.923 42.643C109.449 42.396 109.085 42.0529 108.831 41.6137C108.584 41.1746 108.461 40.6565 108.461 40.0595V35.4071H110.056V40.0492C110.056 40.557 110.197 40.9413 110.478 41.202C110.767 41.4559 111.161 41.5829 111.662 41.5829C112.19 41.5829 112.588 41.449 112.856 41.1814C113.131 40.9069 113.268 40.5295 113.268 40.0492V35.4071H114.863V40.0595C114.863 40.6771 114.733 41.2054 114.472 41.6446C114.211 42.0838 113.841 42.42 113.36 42.6533C112.88 42.8866 112.311 43.0033 111.652 43.0033Z" fill="white"/>
<path d="M125.525 42.9106V36.7966H123.312V35.4071H129.385V36.7966H127.12V42.9106H125.525Z" fill="white"/>
<path d="M138.004 42.9106V35.4071H139.61V42.9106H138.004Z" fill="white"/>
<path d="M152.265 43.0033C151.51 43.0033 150.848 42.8523 150.278 42.5504C149.716 42.2485 149.277 41.8093 148.961 41.2329C148.652 40.6565 148.498 39.9634 148.498 39.1537C148.498 38.3371 148.652 37.6441 148.961 37.0745C149.277 36.505 149.716 36.0693 150.278 35.7673C150.848 35.4654 151.51 35.3145 152.265 35.3145C153.027 35.3145 153.689 35.4654 154.251 35.7673C154.814 36.0693 155.25 36.5084 155.559 37.0848C155.874 37.6544 156.032 38.344 156.032 39.1537C156.032 39.9703 155.874 40.6668 155.559 41.2432C155.25 41.8127 154.811 42.2485 154.241 42.5504C153.679 42.8523 153.02 43.0033 152.265 43.0033ZM152.265 41.6343C152.917 41.6343 153.431 41.4285 153.809 41.0167C154.193 40.5982 154.385 39.9772 154.385 39.1537C154.385 38.3303 154.193 37.7127 153.809 37.301C153.425 36.8893 152.91 36.6834 152.265 36.6834C151.62 36.6834 151.105 36.8893 150.721 37.301C150.344 37.7127 150.155 38.3303 150.155 39.1537C150.155 39.984 150.344 40.605 150.721 41.0167C151.105 41.4285 151.62 41.6343 152.265 41.6343Z" fill="white"/>
<path d="M164.933 42.9106V35.4071H166.847L170.007 40.708H170.079L170.018 38.3097V35.4071H171.561V42.9106H169.75L166.59 37.723H166.518L166.559 39.8948V42.9106H164.933Z" fill="white"/>
<path d="M183.54 43.0033C182.524 43.0033 181.752 42.7768 181.224 42.3239C180.703 41.8711 180.442 41.2809 180.442 40.5536H182.068C182.082 40.9241 182.205 41.2226 182.439 41.449C182.679 41.6686 183.066 41.7784 183.602 41.7784C184.013 41.7784 184.343 41.7029 184.59 41.552C184.837 41.401 184.96 41.178 184.96 40.8829C184.96 40.6428 184.909 40.4575 184.806 40.3271C184.703 40.1899 184.525 40.0835 184.271 40.008C184.017 39.9326 183.663 39.8571 183.211 39.7816C182.346 39.6443 181.694 39.411 181.255 39.0817C180.816 38.7454 180.596 38.2514 180.596 37.5995C180.596 36.8927 180.857 36.3369 181.378 35.932C181.9 35.5203 182.617 35.3145 183.53 35.3145C184.12 35.3145 184.628 35.4071 185.053 35.5924C185.478 35.7776 185.808 36.0384 186.041 36.3746C186.281 36.7109 186.401 37.102 186.401 37.548H184.785C184.772 37.1843 184.638 36.9236 184.384 36.7658C184.137 36.6079 183.835 36.529 183.478 36.529C183.101 36.529 182.802 36.6079 182.583 36.7658C182.37 36.9167 182.264 37.126 182.264 37.3936C182.264 37.6269 182.325 37.8019 182.449 37.9186C182.572 38.0352 182.765 38.1244 183.025 38.1862C183.293 38.2479 183.643 38.3166 184.075 38.392C184.391 38.4401 184.7 38.5053 185.002 38.5876C185.303 38.67 185.575 38.7935 185.815 38.9582C186.062 39.116 186.257 39.339 186.401 39.6272C186.552 39.9085 186.628 40.2756 186.628 40.7285C186.628 41.401 186.367 41.95 185.846 42.3754C185.331 42.794 184.562 43.0033 183.54 43.0033Z" fill="white"/>
<defs>
<linearGradient id="paint0_linear_554_806" x1="-540.002" y1="-25.774" x2="-472.559" y2="241.517" gradientUnits="userSpaceOnUse">
<stop stop-color="white"/>
<stop offset="1" stop-color="#FBFBFB"/>
</linearGradient>
<linearGradient id="paint1_linear_554_806" x1="-540.002" y1="-25.774" x2="-472.559" y2="241.517" gradientUnits="userSpaceOnUse">
<stop stop-color="white"/>
<stop offset="1" stop-color="#FBFBFB"/>
</linearGradient>
</defs>
</svg>
